<?xml version="1.0" encoding="utf-8"?>
<!-- Generator: Adobe Illustrator 22.1.0, SVG Export Plug-In . SVG Version: 6.00 Build 0)  -->
<svg version="1.1" id="_x33_23a9df0-b6bf-41eb-ac43-3b4586bdb917"
	 xmlns="http://www.w3.org/2000/svg" xmlns:xlink="http://www.w3.org/1999/xlink" x="0px" y="0px" viewBox="0 0 500 123"
	 style="enable-background:new 0 0 500 123;" xml:space="preserve">
<style type="text/css">
	.st0{fill:#D70C18;}
	.st1{fill:#FFFFFF;}
	.st2{fill:#595757;}
	.st3{fill:#009FD1;}
</style>
<title>cwef-logo-w</title>
<g>
	<g>
		<g>
			<rect x="3.7" y="7.7" class="st0" width="236.3" height="88.6"/>
		</g>
		<g>
			<path class="st1" d="M63.5,21.6c0.6,1.7-0.4,3.3-1.4,4.2c-3.5,1.7-7.2,2.8-10.6,4.7c-6.6,1.3-12.9,3.6-19.3,5.2
				c-2.5,0.4-5.1-0.3-6.5-2.4c0.4-1.5-1.8-2.6-0.2-4c3-0.3,5.3-1.1,8.5-0.9c3.2-2.6,6.9-3,11-3.5c0.6-0.9,1.8-0.8,2.5-1.4
				c1.8-1.4,4.1-1.9,5.5-3.7c2-1.6,4.6-1.4,7.2-1C61.3,19.6,63,20,63.5,21.6"/>
		</g>
		<g>
			<path class="st1" d="M111.7,44c0.3-1.3,0.6-2.7-0.1-3.9c-0.1-0.8,0.4-1.4-0.4-1.7c-1.4-1-2.7,0.6-4.1,0.8
				c-1.9,0.9-3.2,3.3-5.5,3.8c-1.7,2.2-4.2,3-6.3,4.4c-2.6,0.7-5.9,0.5-8.4-0.5c-0.6-1.1-2-0.5-2.8-1.2c-2-1.3-4.6-1.3-6.1-3.5
				c-0.9-1.6-3.5-1.6-3-3.8c0.9-0.9,2.1-1.1,3.3-1.4c4.1-0.8,8.5-0.2,12.4-1.5c2.2-0.6,4.6-1.1,6.8-1.9c0.8-0.9,2.6-0.3,3.2-1.6
				c1.5-0.3,3-0.7,4.4-0.7c1.2-1,3.1-0.4,4.2-1.6c2.4,0,4.2-1.6,6.8-1.4c1.9-1.9,4.8-1.1,7.1-2.1c3.3-1,6.9-3.5,10.6-1.5h1.5
				c2.5,0.7,5.8,0.7,7.1,3.2c0.2,1.7-1,3.2-1.7,4.6c-2.4,1.4-6.4,2.3-8.9,0.3c-2.9-1.9-6.5-0.8-9.6,0.1c-0.8,0.9-2.2,0.9-2.7,2.3
				c0.1,1.4-0.2,3,0.3,4.2c1.1,2.4-0.4,4.7,0.7,7.1c0.5,3.2,1.4,7.6,1.3,11.3c0,5.1,0.4,11.3,1.2,16.2c0.3,1.8,1.1,3.8,1.3,5.9
				c1.1,1.3,0.1,3,0.8,4.5c-1.2,3.1-0.1,7.6-3.6,9.2c-1.8,2-5.4,1.6-7.6,0.9c-1.6-0.5-2-2.2-3.1-3.1c0-2.1-1.5-4-0.7-6.3
				c1.2-13.5,2.4-26.3,1.7-39.8"/>
		</g>
		<g>
			<path class="st1" d="M46,37.6c1.2,1.3,1.7,2.8,2.4,4.4c1.2,1.3,2.7-0.2,3.9-0.3c2.1-2.2,4.8-5,8.6-4.6c1.5,0.6,3.5,0.5,4.2,2.1
				c0.7,1,0.5,2.2,0.2,3.2c-1.4,2.8-4.7,3.8-7.1,5.5c-1.9,1-4.4,1.7-5.4,3.8c-0.1,3.3,2.6,6.1,4.8,8c3.2,3.4,6.2,8.5,10.6,10.5
				c2.4,1.3,4.2,4,7.2,4.8c0.7,0.6,1.9,0.9,2.5,1.6c1.3,0.2,1.9,2.1,3.5,1.6c2.8,1.9,5.6,3.8,8.9,4.3c0.8,0.6,1.9,1.1,2.4,1.8
				c1.1,0.2,1.5,1.3,2.1,2.1c0.3,0.9-0.5,1.6-0.7,2.4c-1.6,1.6-4.2,0.9-6.1,2c-5.8,0.2-12.3,1.7-18.1,0.5l-6.5-4.9
				c-4.1-5.1-7.2-10.6-11.3-15.8c-0.5-1.2-2.2-1.6-2.7-3c-2-1.3-2.7-3.7-5.4-3.9c-1.1,1.6-1.4,3.4-1.4,5.1c-0.6,1.4-0.4,3.5-1.2,4.9
				c-0.9,1-0.5,2.5-1.4,3.4c-0.1,1.2-0.9,1.5-1,2.7c-2,4.6-5.7,8.3-9.5,11.5c-3.3,0.6-6.2,3.1-9.8,1.2c-2-0.2-4.1-1.5-4.8-3.5
				c0.5-1.1-0.9-1.4-0.9-2.3c0.6-1.4-1.3-2.8,0.6-3.6c0.1-0.8,0.8-1.6,1.5-1.8c1.7-0.3,3.5-0.4,4.8,1.1c0.6,0.2,1.1-0.4,1.5-0.6
				c0.1-0.9,1.5-1,1.4-1.9c1.6-1.4,2.7-3,3.4-5.1c2.1-2.2,2.3-5.4,1.5-8.5c-2.2-0.2-4.5,0.9-6.8,0.2c-1.5-1.1-3.8-1.7-4.5-3.4
				C16.8,62,16,60.6,15.8,59c0.6-1.8,3.1-1.2,4.5-1.5c1.3-0.5,2.8-0.7,4.1-1.3c3.3-0.7,5.2-3.6,8.6-4.1c2-1.2,4.8-3,4.4-5.8
				c-1-2.3,0.6-4.3,0.2-6.8c0.4-1.1,1.3-2,2.4-2.4c1.2-0.4,2.6,0.2,3.9-0.4C44.5,37.5,45.4,37.1,46,37.6"/>
		</g>
		<g>
			<path class="st1" d="M148.7,54.3c2.7,2.9,5.6,6.5,3.8,10.9c-0.2,1.5-2.3,0.9-2.4,2.5c-3,0.5-6.1,0.5-8.9-0.5
				c-0.1-1.1-0.8-1.4-1.7-2c-3.4-3.1-6.1-7.4-4.5-11.7c3.4-2.8,8.1-0.2,12,0C147.5,53.9,148.1,54.3,148.7,54.3"/>
		</g>
		<g>
			<path class="st1" d="M195.3,67.1c-0.1,0.2-0.2,0.5-0.4,0.6l-5.1,0.1l-0.2,0.1c-0.2,1.4-0.1,3-0.1,4.5l0.2,0.2l4.4,0
				c0.1,0.1,0.4,0.2,0.4,0.4c0.1,0.2-0.1,0.3-0.1,0.5l-0.4,0.2l-4.2,0c-0.1,0.1-0.2,0.1-0.3,0.2v4.5c0,0.3,0.3,0.2,0.5,0.3l4.2,0.1
				c0.1,0.1,0.4,0.2,0.4,0.4c-0.1,0.2,0,0.4-0.3,0.5c-1.6,0.1-3.1-0.1-4.7,0.2l-0.2,0.2l0.1,4.3c0.4,0.2,0.8,0.2,1.2,0.2
				c1.3,0,3-0.2,4.3,0.1c0.2,0.2,0.2,0.4,0.1,0.6l-0.2,0.2c-4.3,0.1-8.5,0-12.8,0.1c-0.8,0-1.5-0.4-1.9-1c-0.3-1.3-0.1-2.8-0.2-4.1
				V69.6l0-0.1c-0.7,0.6-1.1,1.6-2,2.1c-0.3,0.1-0.6-0.1-0.8-0.2c-0.1-0.2-0.2-0.4-0.1-0.7c1.9-2.5,3.1-5.3,3.9-8.3
				c0.4-0.6,1.1-0.6,1.7-0.5c0.4,0.1,0.8,0.4,0.9,0.8l0,0.5c-0.5,1.1-1.4,2.1-1.7,3.3l0.1,0.1l4.7,0c0.2-1,0.9-1.7,1.4-2.5
				c0.6-0.8,0.8-2.1,2-2.2c0.6,0,1.2,0.2,1.6,0.7c0.1,0.5-0.1,0.9-0.5,1.2c-0.9,0.8-1.7,1.8-2.4,2.7l0.1,0.1l6.1,0.1"/>
		</g>
		<g>
			<path class="st1" d="M199.7,67.3c0.2-0.2,0.3-0.5,0.6-0.5c4.4-0.1,7.4-0.2,11.8-0.1c0.5-0.3,1.2-0.2,1.7-0.3l5.8-0.1
				c0.5-0.3,0.1-1,0.3-1.5c0.2-0.9-0.5-2.6,0.8-2.9c0.7-0.1,1.6-0.2,1.9,0.6v3.5l0.1,0.2c2.5,0.1,5,0,7.4,0.1
				c0.1,0.1,0.3,0.1,0.3,0.3c0,0.3,0,0.6-0.3,0.6c-2.3,0.2-4.8,0-7.2,0.1c-0.1,0.1-0.2,0-0.2,0.1l-0.1,0.2c-0.1,1.6,0,3-0.1,4.7
				l0.2,0.2l6,0.1c0.2,0.2,0.5,0.4,0.3,0.7l-0.3,0.3l-6.1,0.1l-9.1,0c-0.2-0.2-0.5-0.3-0.4-0.7c0.1-0.3,0.4-0.4,0.6-0.4l5.7,0
				c0.6-0.2,0.2-1.1,0.4-1.5v-3.5l-0.3-0.2c-2.4,0-4.6,0-7,0c-0.1-0.1-0.2-0.1-0.4-0.1c-0.2,0.3-0.4,0.3-0.7,0.4l-10.8,0.1
				c-0.2-0.1-0.5-0.1-0.7-0.1"/>
		</g>
		<g>
			<path class="st1" d="M173.2,62.4c0.2,0.9,0.1,2,0.1,2.9l0.3,0.2c1.6,0.2,3.2-0.2,4.7,0.1c0.2,0.2,0.2,0.3,0.1,0.6
				c-0.1,0.2-0.3,0.3-0.5,0.3l-9.5,0.1l-3.8,0c-0.2,0-0.3-0.2-0.4-0.4c0-0.2,0.1-0.5,0.3-0.6c1.8-0.1,3.8,0,5.7-0.1
				c0.2,0,0.3-0.2,0.4-0.3c0.3-1.1-0.7-3.2,1-3.4C172.1,61.9,172.9,61.8,173.2,62.4"/>
		</g>
		<g>
			<path class="st1" d="M211,63.2c0.1,0,0.3,0.1,0.3,0.2c0.1,0.3,0.1,0.6-0.3,0.7l-0.9,0.1l-8.7-0.1c-0.2,0-0.3-0.2-0.4-0.4
				c-0.1-0.2,0-0.5,0.2-0.6c1.1-0.4,2.3,0,3.4-0.1C206.7,63.1,209,63.1,211,63.2"/>
		</g>
		<g>
			<path class="st1" d="M170.1,67.1c0.3,0.2,0.4,0.6,0.3,1c-0.1,0.9-1.5,1.6-0.6,2.5c0.4,0.8,1.4,1.6,1.6,2.4
				c0.1,0.1-0.1,0.3-0.1,0.4c-0.3,0.3-0.7,0.4-1,0.3c-0.7-0.6-1.2-1.3-1.9-1.9c-0.3,0.1-0.4,0.3-0.6,0.5c-0.8,1-1.5,2.3-2.7,2.8
				c-0.3-0.1-0.6-0.2-0.8-0.5l0-0.4c1.7-2.1,2.6-4.6,3.8-7C168.7,66.9,169.6,66.6,170.1,67.1"/>
		</g>
		<g>
			<path class="st1" d="M176.9,68c0.1,0.9-0.7,1.6-1,2.4c0.4,1.2,1,2.3,1.7,3.5c0.1,0.2,0,0.4-0.1,0.6c-0.3,0.2-0.6,0.3-1,0.2
				c-0.7-0.5-1.2-1.5-1.8-2.1c-0.8,0.4-0.9,2.1-2.2,1.5c-0.3-0.2-0.3-0.5-0.2-0.8c1-1.7,1.8-3.5,2.2-5.4c0.2-0.4,0.5-0.5,0.9-0.6
				C175.9,67.3,176.6,67.4,176.9,68"/>
		</g>
		<g>
			<path class="st0" d="M187,68.1c0,1.5,0,3.1-0.1,4.3c-1.3,0.2-2.6,0.1-4,0.1l-0.1-0.1v-4.3c0-0.5,0.5-0.2,0.8-0.3
				c1.1,0,2.2,0,3.2,0L187,68.1z"/>
		</g>
		<g>
			<path class="st1" d="M210.9,70.4c0.2,0.1,0.5,0.2,0.5,0.5c-0.1,0.2-0.2,0.5-0.4,0.6l-0.5,0h-8.9c-0.2-0.1-0.3-0.2-0.5-0.3
				c-0.1-0.3,0.1-0.7,0.4-0.8l0.2,0L210.9,70.4z"/>
		</g>
		<g>
			<path class="st1" d="M210.8,74c0.2,0.1,0.3,0.2,0.4,0.4c0.1,0.2,0,0.4-0.1,0.5c-0.2,0.2-0.4,0.3-0.7,0.2l-9.1,0
				c-0.3-0.1-0.4-0.5-0.3-0.7c0.1-0.2,0.4-0.2,0.7-0.3C204.8,74,207.7,74,210.8,74"/>
		</g>
		<g>
			<path class="st0" d="M187,73.7l-0.1,4.7c-1.4,0.1-2.5,0.1-4,0l-0.1-0.1l0-4.6c0.1-0.1,0.2-0.1,0.4-0.2
				C184.5,73.7,185.8,73.5,187,73.7"/>
		</g>
		<g>
			<path class="st1" d="M172.9,74.5c0.7,0.7,0.1,1.5,0.4,2.4c0.1,0.2,0.3,0.1,0.5,0.2h4.4c0.2,0.1,0.4,0.2,0.5,0.4
				c0,0.3-0.2,0.5-0.4,0.6l-4.2,0.1c-0.3,0.1,0,0.3,0,0.5c1.2,1.6,2.6,2.5,4.2,3.7c0.2,0.4-0.1,0.7-0.4,0.8h-0.7
				c-1.4-0.9-2.9-2-4.2-3l-0.1,0.1c0.2,1.9,0.2,3.6,0.2,5.7c-0.3,0.7-1.1,0.7-1.8,0.6c-0.3-0.1-0.7-0.3-0.8-0.6l-0.1-0.5
				c-0.1-1.8,0.1-3.6,0.4-5.5c-0.4-0.3-0.4,0.3-0.7,0.5c0,0.2-0.3,0.2-0.3,0.4c-0.8,0.8-1.6,1.9-2.5,2.6c0,0.3-0.4,0.3-0.5,0.4
				c-0.6,0.5-1.4,1.6-2.4,1.1c-0.2-0.1-0.2-0.4-0.2-0.5c0.1-0.3,0.5-0.5,0.8-0.8c1.8-1.6,3-3.2,4.2-5.1c0-0.1,0-0.2-0.1-0.2
				c-1.6-0.1-3.2,0-4.8-0.1c-0.2-0.2-0.4-0.5-0.2-0.7l0.4-0.2l5.6-0.1c0.2,0,0.3-0.2,0.4-0.3c0.2-0.9-0.4-2.1,0.6-2.5
				C171.7,74.1,172.5,74,172.9,74.5"/>
		</g>
		<g>
			<path class="st1" d="M218.8,75.1c0.6,0.5,0.1,1.4,0.2,2.1c0,2.6,0,4.7,0.1,7.2c0.1,0.3,0.5,0.4,0.7,0.5h3.8
				c1.1-0.3,1.6-1.4,1.9-2.4c0.2-0.4,0.6-0.6,1.1-0.7c0.6,0,1.2,0.1,1.6,0.7c0.2,1.2-0.5,2.3-1.4,3c-2.3,1-5.5,0.4-8.1,0.5
				c-0.8-0.1-1.7-0.4-2-1.2l-0.1-0.5c0-2.7,0.1-5.9,0.1-8.7c0.1-0.4,0.5-0.5,0.9-0.7C218,74.8,218.4,74.8,218.8,75.1"/>
		</g>
		<g>
			<path class="st1" d="M223.3,76.7c0.7,1,1.4,1.9,1.9,3c0,0.3,0,0.6-0.2,0.8c-0.4,0.3-1,0.5-1.5,0.5c-1.5-0.2-1.1-2-1.8-3
				c-0.2-0.9-1.3-1.6-1.1-2.6c0.2-0.4,0.8-0.4,1.3-0.3C222.4,75.4,222.8,76.1,223.3,76.7"/>
		</g>
		<g>
			<path class="st1" d="M228.7,77.6c0.8,1,1.6,1.9,2.3,2.9c0.1,0.4,0.1,0.8-0.2,1.1c-0.5,0.4-1.1,0.5-1.8,0.4
				c-0.8-0.4-0.9-1.4-1.2-2.1c-0.5-1.1-1.2-1.9-1.9-2.9c-0.1-0.3,0-0.6,0.2-0.8c0.3-0.2,0.7-0.2,1-0.1
				C227.8,76.4,228.2,77.2,228.7,77.6"/>
		</g>
		<g>
			<path class="st1" d="M214.5,77c0.2,1.3-0.3,2.5-0.4,3.8c-0.4,1.1-0.1,2.8-1.5,3.2c-0.5,0.1-1-0.1-1.5-0.2c-0.1,0.6-0.3,1.3-1,1.6
				l-1,0.3c-2.2,0-4.7,0.1-6.7-0.1c-0.4-0.1-0.9-0.4-1.2-0.8l-0.2-0.5l0.1-5.8c0.1-0.5,0.4-0.9,0.8-1.2c0.6-0.4,1.5-0.3,2.3-0.3h5.2
				c2.6,0.3,1.2,3.2,1.7,4.9c0.2,0.1,0.3-0.2,0.4-0.4c0.7-1.4,1.1-2.9,1.3-4.6c0.1-0.4,0.6-0.4,0.9-0.5
				C214,76.7,214.3,76.7,214.5,77"/>
		</g>
		<g>
			<path class="st0" d="M208.4,78.5l0,6.1l-0.2,0.2l-4.4,0l-0.1-0.1c0-2,0-4.2,0.1-6.1c0-0.2,0.3-0.1,0.5-0.2l4.1,0L208.4,78.5z"/>
		</g>
		<g>
			<path class="st0" d="M186.9,79.8L186.9,79.8c0,1.6,0.2,3.1,0.1,4.5l-0.1,0.1H183l-0.1-0.1c0-1.5-0.1-3,0-4.4
				c0-0.1,0.1-0.2,0.2-0.2C184.4,79.7,185.8,79.5,186.9,79.8"/>
		</g>
		<g>
			<rect x="3.7" y="44.3" class="st1" width="29.8" height="1.3"/>
		</g>
		<g>
			<rect x="65.9" y="44.3" class="st1" width="13.2" height="1.3"/>
		</g>
		<g>
			<rect x="102.9" y="44.3" class="st1" width="8.5" height="1.3"/>
		</g>
		<g>
			<rect x="122" y="44.6" class="st1" width="118.1" height="1.3"/>
		</g>
		<g>
			<rect x="3.4" y="67.8" class="st1" width="19.9" height="1.3"/>
		</g>
		<g>
			<rect x="43.8" y="67.8" class="st1" width="5" height="1.3"/>
		</g>
		<g>
			<rect x="67.6" y="67.8" class="st1" width="41.5" height="1.3"/>
		</g>
		<g>
			<rect x="124.1" y="67.8" class="st1" width="16.8" height="1.3"/>
		</g>
		<g>
			<rect x="152" y="67.8" class="st1" width="9.7" height="1.3"/>
		</g>
		<g>
			<rect x="232" y="67.8" class="st1" width="8.1" height="1.3"/>
		</g>
		<g>
			<rect x="3.8" y="77.2" class="st1" width="19.8" height="1.3"/>
		</g>
		<g>
			<rect x="41.5" y="77.2" class="st1" width="13.2" height="1.3"/>
		</g>
		<g>
			<rect x="83.2" y="77.2" class="st1" width="25.3" height="1.3"/>
		</g>
		<g>
			<rect x="125.6" y="77.2" class="st1" width="36.2" height="1.3"/>
		</g>
		<g>
			<rect x="232" y="77.2" class="st1" width="8.1" height="1.3"/>
		</g>
		<g>
			<rect x="3.7" y="82.2" class="st1" width="8.9" height="1.3"/>
		</g>
		<g>
			<rect x="39.1" y="82.2" class="st1" width="19.1" height="1.3"/>
		</g>
		<g>
			<rect x="93.5" y="82.2" class="st1" width="14.1" height="1.3"/>
		</g>
		<g>
			<rect x="127" y="82.2" class="st1" width="35" height="1.3"/>
		</g>
		<g>
			<rect x="231.4" y="82.2" class="st1" width="8.7" height="1.3"/>
		</g>
		<g>
			<rect x="3.8" y="90.7" class="st1" width="9.2" height="1.3"/>
		</g>
		<g>
			<rect x="33" y="90.7" class="st1" width="32.6" height="1.3"/>
		</g>
		<g>
			<rect x="95.3" y="90.7" class="st1" width="12.9" height="1.3"/>
		</g>
		<g>
			<rect x="126.4" y="90.7" class="st1" width="113.7" height="1.3"/>
		</g>
		<g>
			<g>
				<path class="st2" d="M15.7,104.9v3.5h-0.3c-0.2-0.8-0.4-1.4-0.7-1.7c-0.2-0.4-0.6-0.6-1-0.8c-0.2-0.1-0.7-0.2-1.3-0.2h-1v9.9
					c0,0.7,0,1.1,0.1,1.2c0.1,0.2,0.2,0.3,0.4,0.4c0.2,0.1,0.5,0.2,0.9,0.2h0.4v0.4H6.5v-0.4h0.4c0.4,0,0.7-0.1,0.9-0.2
					c0.2-0.1,0.3-0.2,0.4-0.5c0.1-0.2,0.1-0.6,0.1-1.2v-9.9H7.4c-0.9,0-1.5,0.2-1.9,0.6c-0.6,0.5-0.9,1.2-1,2.2H4.1v-3.5H15.7z"/>
			</g>
			<g>
				<path class="st2" d="M20.5,116.5c-1.1,1-2.1,1.4-2.9,1.4c-0.5,0-0.9-0.2-1.3-0.5c-0.3-0.3-0.5-0.7-0.5-1.2
					c0-0.7,0.3-1.3,0.9-1.8c0.6-0.5,1.9-1.3,3.8-2.2v-0.9c0-0.7,0-1.1-0.1-1.3c-0.1-0.2-0.2-0.3-0.4-0.5c-0.2-0.1-0.4-0.2-0.7-0.2
					c-0.4,0-0.8,0.1-1,0.3c-0.2,0.1-0.2,0.2-0.2,0.4c0,0.1,0.1,0.3,0.3,0.5c0.2,0.3,0.4,0.5,0.4,0.8c0,0.3-0.1,0.6-0.3,0.8
					c-0.2,0.2-0.5,0.3-0.9,0.3c-0.4,0-0.7-0.1-1-0.4c-0.3-0.2-0.4-0.5-0.4-0.8c0-0.5,0.2-0.9,0.5-1.3c0.4-0.4,0.9-0.7,1.5-1
					c0.6-0.2,1.3-0.3,2-0.3c0.8,0,1.5,0.2,2,0.5c0.5,0.4,0.8,0.7,1,1.2c0.1,0.3,0.1,0.9,0.1,1.8v3.5c0,0.4,0,0.7,0,0.8
					s0.1,0.2,0.1,0.2c0.1,0,0.1,0.1,0.2,0.1c0.2,0,0.3-0.1,0.5-0.4l0.3,0.2c-0.3,0.5-0.6,0.8-1,1c-0.3,0.2-0.7,0.3-1.2,0.3
					c-0.5,0-0.9-0.1-1.2-0.4C20.7,117.3,20.6,117,20.5,116.5z M20.5,115.8v-3c-0.8,0.5-1.3,0.9-1.7,1.4c-0.2,0.3-0.4,0.7-0.4,1
					c0,0.3,0.1,0.5,0.3,0.8c0.2,0.2,0.4,0.3,0.7,0.3C19.7,116.3,20.1,116.1,20.5,115.8z"/>
			</g>
			<g>
				<path class="st2" d="M29.1,108.9v7c0,0.6,0.1,1,0.2,1.2c0.1,0.2,0.4,0.3,0.9,0.3v0.3h-4.8v-0.3c0.4,0,0.7-0.1,0.9-0.3
					c0.1-0.1,0.2-0.5,0.2-1.2v-5.2c0-0.6-0.1-1-0.2-1.2c-0.1-0.2-0.4-0.3-0.8-0.3v-0.4H29.1z M27.8,104.6c0.4,0,0.8,0.1,1,0.4
					c0.3,0.3,0.4,0.6,0.4,1s-0.1,0.8-0.4,1c-0.3,0.3-0.6,0.4-1,0.4c-0.4,0-0.8-0.1-1-0.4c-0.3-0.3-0.4-0.6-0.4-1s0.1-0.8,0.4-1
					C27.1,104.7,27.4,104.6,27.8,104.6z"/>
			</g>
			<g>
				<path class="st2" d="M40.2,118.1l-2.4-6.5l-2.4,6.5h-0.5l-2.4-6.4c-0.4-1-0.7-1.6-0.9-1.9c-0.2-0.2-0.4-0.3-0.7-0.4v-0.4h4.5
					v0.4c-0.3,0-0.5,0-0.6,0.1c-0.1,0.1-0.2,0.2-0.2,0.3c0,0.1,0.1,0.4,0.3,1l1.3,3.5l1.3-3.5l-0.1-0.2c-0.2-0.5-0.4-0.8-0.5-0.9
					c-0.1-0.1-0.4-0.2-0.7-0.3v-0.4h4.6v0.4c-0.4,0-0.6,0.1-0.7,0.1c-0.1,0.1-0.1,0.2-0.1,0.3c0,0.1,0.1,0.4,0.3,0.9l1.3,3.5
					l1.1-3.2c0.2-0.5,0.2-0.8,0.2-0.9c0-0.2-0.1-0.4-0.2-0.5c-0.1-0.1-0.4-0.2-0.7-0.2v-0.4h2.6v0.4c-0.3,0-0.5,0.1-0.7,0.3
					c-0.2,0.2-0.4,0.6-0.7,1.4l-2.5,7.1H40.2z"/>
			</g>
			<g>
				<path class="st2" d="M50.7,116.5c-1.1,1-2.1,1.4-2.9,1.4c-0.5,0-0.9-0.2-1.3-0.5c-0.3-0.3-0.5-0.7-0.5-1.2
					c0-0.7,0.3-1.3,0.9-1.8c0.6-0.5,1.9-1.3,3.8-2.2v-0.9c0-0.7,0-1.1-0.1-1.3c-0.1-0.2-0.2-0.3-0.4-0.5c-0.2-0.1-0.4-0.2-0.7-0.2
					c-0.4,0-0.8,0.1-1,0.3c-0.2,0.1-0.2,0.2-0.2,0.4c0,0.1,0.1,0.3,0.3,0.5c0.2,0.3,0.4,0.5,0.4,0.8c0,0.3-0.1,0.6-0.3,0.8
					c-0.2,0.2-0.5,0.3-0.9,0.3c-0.4,0-0.7-0.1-1-0.4c-0.3-0.2-0.4-0.5-0.4-0.8c0-0.5,0.2-0.9,0.5-1.3c0.4-0.4,0.9-0.7,1.5-1
					c0.6-0.2,1.3-0.3,2-0.3c0.8,0,1.5,0.2,2,0.5c0.5,0.4,0.8,0.7,1,1.2c0.1,0.3,0.1,0.9,0.1,1.8v3.5c0,0.4,0,0.7,0,0.8
					s0.1,0.2,0.1,0.2c0.1,0,0.1,0.1,0.2,0.1c0.2,0,0.3-0.1,0.5-0.4l0.3,0.2c-0.3,0.5-0.6,0.8-1,1c-0.3,0.2-0.7,0.3-1.2,0.3
					c-0.5,0-0.9-0.1-1.2-0.4C50.9,117.3,50.8,117,50.7,116.5z M50.7,115.8v-3c-0.8,0.5-1.3,0.9-1.7,1.4c-0.2,0.3-0.4,0.7-0.4,1
					c0,0.3,0.1,0.5,0.3,0.8c0.2,0.2,0.4,0.3,0.7,0.3C49.9,116.3,50.3,116.1,50.7,115.8z"/>
			</g>
			<g>
				<path class="st2" d="M59.5,108.9v1.2c0.5-0.5,0.9-0.9,1.3-1.1c0.4-0.2,0.9-0.3,1.4-0.3c0.6,0,1.1,0.2,1.4,0.5
					c0.4,0.3,0.6,0.7,0.8,1.2c0.1,0.4,0.2,1.1,0.2,2.1v3.5c0,0.7,0.1,1.1,0.2,1.3c0.1,0.2,0.4,0.3,0.8,0.3v0.3H61v-0.3
					c0.3,0,0.6-0.2,0.7-0.4c0.1-0.2,0.2-0.6,0.2-1.2v-4c0-0.7,0-1.2-0.1-1.4c-0.1-0.2-0.2-0.3-0.3-0.4c-0.1-0.1-0.3-0.2-0.5-0.2
					c-0.5,0-1.1,0.4-1.5,1.2v4.8c0,0.7,0.1,1.1,0.2,1.3c0.1,0.2,0.4,0.3,0.7,0.3v0.3h-4.5v-0.3c0.4,0,0.6-0.2,0.8-0.4
					c0.1-0.1,0.2-0.6,0.2-1.2v-5c0-0.7-0.1-1.1-0.2-1.3c-0.1-0.2-0.4-0.3-0.8-0.3v-0.4H59.5z"/>
			</g>
			<g>
				<path class="st2" d="M67.9,110.2l-0.5-2.8c-0.1-0.8-0.2-1.3-0.2-1.6c0-0.4,0.1-0.7,0.2-0.9c0.2-0.2,0.4-0.3,0.7-0.3
					c0.3,0,0.5,0.1,0.7,0.3c0.2,0.2,0.3,0.4,0.3,0.7c0,0.2-0.1,0.8-0.2,1.7l-0.5,2.8H67.9z"/>
			</g>
			<g>
				<path class="st2" d="M76.5,108.7l0.1,3h-0.3c-0.4-0.9-0.8-1.5-1.2-1.8c-0.4-0.3-0.8-0.5-1.2-0.5c-0.3,0-0.5,0.1-0.7,0.3
					c-0.2,0.2-0.3,0.4-0.3,0.6c0,0.2,0.1,0.3,0.2,0.5c0.2,0.3,0.8,0.7,1.7,1.3c0.9,0.6,1.5,1.2,1.8,1.6c0.3,0.4,0.4,0.9,0.4,1.5
					c0,0.5-0.1,1-0.4,1.5c-0.2,0.5-0.6,0.8-1,1.1c-0.5,0.3-0.9,0.4-1.5,0.4c-0.4,0-1-0.1-1.7-0.4c-0.2-0.1-0.3-0.1-0.4-0.1
					c-0.2,0-0.4,0.2-0.5,0.5h-0.3l-0.2-3.2h0.3c0.3,0.8,0.7,1.5,1.2,1.9c0.5,0.4,1,0.6,1.4,0.6c0.3,0,0.6-0.1,0.7-0.3
					c0.2-0.2,0.3-0.4,0.3-0.7c0-0.3-0.1-0.6-0.3-0.8c-0.2-0.2-0.6-0.6-1.3-1c-1-0.7-1.6-1.2-1.9-1.5c-0.4-0.5-0.6-1.1-0.6-1.7
					c0-0.7,0.2-1.3,0.7-1.9c0.5-0.6,1.2-0.8,2-0.8c0.5,0,0.9,0.1,1.4,0.4c0.2,0.1,0.3,0.1,0.4,0.1c0.1,0,0.2,0,0.3-0.1
					c0.1,0,0.2-0.2,0.3-0.4H76.5z"/>
			</g>
			<g>
				<path class="st2" d="M94.3,113.3l-0.5,4.5H82.3v-0.4h0.4c0.4,0,0.7-0.1,0.9-0.2c0.2-0.1,0.3-0.2,0.4-0.5
					c0.1-0.2,0.1-0.6,0.1-1.2v-8.5c0-0.7,0-1.1-0.1-1.2c-0.1-0.2-0.2-0.3-0.4-0.4c-0.2-0.1-0.5-0.2-0.9-0.2h-0.4v-0.4h6.9v0.4h-0.6
					c-0.4,0-0.7,0.1-0.9,0.2c-0.2,0.1-0.3,0.2-0.4,0.5c-0.1,0.2-0.1,0.6-0.1,1.2v8.2c0,0.7,0,1.1,0.1,1.3c0.1,0.2,0.2,0.3,0.4,0.4
					c0.2,0.1,0.5,0.1,1.2,0.1h1.1c0.7,0,1.3-0.1,1.7-0.4c0.5-0.2,0.9-0.6,1.2-1.1c0.3-0.5,0.6-1.3,0.9-2.3H94.3z"/>
			</g>
			<g>
				<path class="st2" d="M103.5,113h-4.9c0.1,1.2,0.4,2.1,0.9,2.8c0.4,0.5,1,0.8,1.6,0.8c0.4,0,0.7-0.1,1-0.3c0.3-0.2,0.6-0.6,1-1.1
					l0.3,0.2c-0.5,1-1,1.7-1.6,2.1c-0.6,0.4-1.3,0.6-2,0.6c-1.3,0-2.3-0.5-3-1.5c-0.5-0.8-0.8-1.8-0.8-3c0-1.5,0.4-2.7,1.2-3.5
					c0.8-0.9,1.7-1.3,2.8-1.3c0.9,0,1.7,0.4,2.3,1.1C103.1,110.5,103.5,111.6,103.5,113z M101.2,112.4c0-1-0.1-1.7-0.2-2.1
					c-0.1-0.4-0.3-0.7-0.5-0.9c-0.1-0.1-0.3-0.2-0.5-0.2c-0.3,0-0.6,0.2-0.8,0.5c-0.4,0.6-0.6,1.3-0.6,2.3v0.3H101.2z"/>
			</g>
			<g>
				<path class="st2" d="M109.9,116.5c-1.1,1-2.1,1.4-2.9,1.4c-0.5,0-0.9-0.2-1.3-0.5c-0.3-0.3-0.5-0.7-0.5-1.2
					c0-0.7,0.3-1.3,0.9-1.8c0.6-0.5,1.9-1.3,3.8-2.2v-0.9c0-0.7,0-1.1-0.1-1.3c-0.1-0.2-0.2-0.3-0.4-0.5c-0.2-0.1-0.4-0.2-0.7-0.2
					c-0.4,0-0.8,0.1-1,0.3c-0.2,0.1-0.2,0.2-0.2,0.4c0,0.1,0.1,0.3,0.3,0.5c0.2,0.3,0.4,0.5,0.4,0.8c0,0.3-0.1,0.6-0.3,0.8
					c-0.2,0.2-0.5,0.3-0.9,0.3c-0.4,0-0.7-0.1-1-0.4c-0.3-0.2-0.4-0.5-0.4-0.8c0-0.5,0.2-0.9,0.5-1.3s0.9-0.7,1.5-1
					c0.6-0.2,1.3-0.3,2-0.3c0.8,0,1.5,0.2,2,0.5c0.5,0.4,0.8,0.7,1,1.2c0.1,0.3,0.1,0.9,0.1,1.8v3.5c0,0.4,0,0.7,0,0.8
					s0.1,0.2,0.1,0.2c0.1,0,0.1,0.1,0.2,0.1c0.2,0,0.3-0.1,0.5-0.4l0.3,0.2c-0.3,0.5-0.6,0.8-1,1c-0.3,0.2-0.7,0.3-1.2,0.3
					c-0.5,0-0.9-0.1-1.2-0.4C110.1,117.3,109.9,117,109.9,116.5z M109.9,115.8v-3c-0.8,0.5-1.3,0.9-1.7,1.4c-0.2,0.3-0.4,0.7-0.4,1
					c0,0.3,0.1,0.5,0.3,0.8c0.2,0.2,0.4,0.3,0.7,0.3C109.1,116.3,109.4,116.1,109.9,115.8z"/>
			</g>
			<g>
				<path class="st2" d="M123.6,104.9v10.2c0,0.7,0,1.1,0.1,1.2c0.1,0.2,0.1,0.4,0.3,0.5c0.1,0.1,0.4,0.2,0.7,0.2v0.3l-3.8,0.7v-1.4
					c-0.5,0.5-0.9,0.9-1.2,1.1c-0.4,0.2-0.7,0.3-1.2,0.3c-1.1,0-2-0.5-2.7-1.5c-0.5-0.8-0.8-1.8-0.8-3c0-1,0.2-1.8,0.5-2.6
					c0.3-0.8,0.8-1.3,1.4-1.7c0.6-0.4,1.2-0.6,1.9-0.6c0.4,0,0.8,0.1,1.1,0.2c0.3,0.2,0.7,0.5,1.1,0.9v-2.7c0-0.7,0-1.1-0.1-1.2
					c-0.1-0.2-0.2-0.3-0.3-0.4c-0.2-0.1-0.4-0.1-0.9-0.1v-0.4H123.6z M121,110.9c-0.5-0.9-1-1.4-1.7-1.4c-0.2,0-0.4,0.1-0.6,0.2
					c-0.2,0.2-0.4,0.5-0.6,1c-0.1,0.5-0.2,1.2-0.2,2.3c0,1.1,0.1,2,0.2,2.5c0.2,0.5,0.4,0.9,0.7,1.2c0.1,0.1,0.3,0.2,0.6,0.2
					c0.6,0,1.1-0.4,1.6-1.3V110.9z"/>
			</g>
			<g>
				<path class="st2" d="M129.6,108.9v7c0,0.6,0.1,1,0.2,1.2c0.1,0.2,0.4,0.3,0.9,0.3v0.3h-4.8v-0.3c0.4,0,0.7-0.1,0.9-0.3
					c0.1-0.1,0.2-0.5,0.2-1.2v-5.2c0-0.6-0.1-1-0.2-1.2c-0.1-0.2-0.4-0.3-0.8-0.3v-0.4H129.6z M128.3,104.6c0.4,0,0.8,0.1,1,0.4
					c0.3,0.3,0.4,0.6,0.4,1s-0.1,0.8-0.4,1c-0.3,0.3-0.6,0.4-1,0.4c-0.4,0-0.8-0.1-1-0.4c-0.3-0.3-0.4-0.6-0.4-1s0.1-0.8,0.4-1
					C127.5,104.7,127.9,104.6,128.3,104.6z"/>
			</g>
			<g>
				<path class="st2" d="M135.5,108.9v1.2c0.5-0.5,0.9-0.9,1.3-1.1c0.4-0.2,0.9-0.3,1.4-0.3c0.6,0,1.1,0.2,1.4,0.5
					c0.4,0.3,0.6,0.7,0.8,1.2c0.1,0.4,0.2,1.1,0.2,2.1v3.5c0,0.7,0.1,1.1,0.2,1.3c0.1,0.2,0.4,0.3,0.8,0.3v0.3H137v-0.3
					c0.3,0,0.6-0.2,0.7-0.4c0.1-0.2,0.2-0.6,0.2-1.2v-4c0-0.7,0-1.2-0.1-1.4c-0.1-0.2-0.2-0.3-0.3-0.4c-0.1-0.1-0.3-0.2-0.5-0.2
					c-0.5,0-1.1,0.4-1.5,1.2v4.8c0,0.7,0.1,1.1,0.2,1.3c0.1,0.2,0.4,0.3,0.7,0.3v0.3h-4.5v-0.3c0.4,0,0.6-0.2,0.8-0.4
					c0.1-0.1,0.2-0.6,0.2-1.2v-5c0-0.7-0.1-1.1-0.2-1.3c-0.1-0.2-0.4-0.3-0.8-0.3v-0.4H135.5z"/>
			</g>
			<g>
				<path class="st2" d="M148.7,109h3v1H150c0.3,0.3,0.5,0.6,0.6,0.8c0.2,0.3,0.2,0.7,0.2,1.1c0,0.6-0.2,1.2-0.5,1.7
					c-0.4,0.5-0.8,0.8-1.4,1.1c-0.6,0.3-1.1,0.4-1.6,0.4c0,0-0.4,0-1.1,0c-0.3,0-0.5,0.1-0.7,0.3c-0.2,0.2-0.3,0.4-0.3,0.7
					c0,0.2,0.1,0.4,0.3,0.6c0.2,0.1,0.5,0.2,0.9,0.2l1.6,0c1.3,0,2.2,0.1,2.7,0.4c0.7,0.4,1.1,1,1.1,1.9c0,0.5-0.2,1-0.5,1.5
					c-0.3,0.4-0.8,0.8-1.3,1c-0.8,0.3-1.8,0.5-2.8,0.5c-0.8,0-1.5-0.1-2.2-0.2c-0.7-0.2-1.1-0.4-1.4-0.6c-0.3-0.3-0.4-0.6-0.4-0.9
					c0-0.3,0.1-0.6,0.3-0.8c0.2-0.2,0.6-0.4,1.2-0.6c-0.8-0.4-1.2-1-1.2-1.7c0-0.4,0.2-0.9,0.5-1.3c0.3-0.4,0.9-0.8,1.6-1.1
					c-0.8-0.3-1.5-0.7-1.8-1.2c-0.4-0.5-0.6-1.1-0.6-1.8c0-0.9,0.4-1.6,1.1-2.3c0.7-0.6,1.6-1,2.7-1
					C147.5,108.6,148.1,108.8,148.7,109z M146.5,119.1c-0.6,0-1.1,0.1-1.3,0.2c-0.4,0.2-0.5,0.5-0.5,0.8c0,0.3,0.2,0.6,0.6,0.9
					c0.4,0.3,1.1,0.4,2.1,0.4c0.9,0,1.6-0.1,2.1-0.4c0.5-0.2,0.8-0.6,0.8-1c0-0.2,0-0.3-0.1-0.4c-0.2-0.2-0.4-0.3-0.8-0.4
					C149,119.1,148,119.1,146.5,119.1z M147.1,109.2c-0.4,0-0.7,0.2-0.9,0.6c-0.3,0.4-0.4,1.1-0.4,2.3c0,0.9,0.1,1.6,0.4,1.9
					c0.3,0.4,0.5,0.5,0.9,0.5c0.4,0,0.7-0.2,1-0.5c0.3-0.4,0.4-1,0.4-2c0-1.1-0.1-1.9-0.4-2.3C147.8,109.4,147.5,109.2,147.1,109.2z
					"/>
			</g>
			<g>
				<path class="st2" d="M166.6,113.4l3.5-8.5h5.3v0.4h-0.4c-0.4,0-0.7,0.1-0.9,0.2c-0.2,0.1-0.3,0.2-0.4,0.4
					c-0.1,0.2-0.1,0.5-0.1,1.2v8.5c0,0.7,0,1.1,0.1,1.2c0.1,0.2,0.2,0.3,0.4,0.4c0.2,0.1,0.5,0.2,0.9,0.2h0.4v0.4h-6.7v-0.4h0.4
					c0.4,0,0.7-0.1,0.9-0.2c0.2-0.1,0.3-0.2,0.4-0.5c0.1-0.2,0.1-0.6,0.1-1.2V106l-4.9,11.8h-0.2l-5-11.7v9.1c0,0.6,0,1,0,1.2
					c0.1,0.3,0.3,0.6,0.5,0.8c0.3,0.2,0.7,0.3,1.3,0.3v0.4h-4.4v-0.4h0.1c0.3,0,0.6,0,0.8-0.1c0.2-0.1,0.4-0.2,0.6-0.4
					c0.1-0.2,0.2-0.4,0.3-0.7c0-0.1,0-0.4,0-1v-8.2c0-0.7,0-1.1-0.1-1.2c-0.1-0.2-0.2-0.3-0.4-0.4c-0.2-0.1-0.5-0.2-0.9-0.2h-0.4
					v-0.4h5.3L166.6,113.4z"/>
			</g>
			<g>
				<path class="st2" d="M181.6,116.5c-1.1,1-2.1,1.4-2.9,1.4c-0.5,0-0.9-0.2-1.3-0.5c-0.3-0.3-0.5-0.7-0.5-1.2
					c0-0.7,0.3-1.3,0.9-1.8c0.6-0.5,1.9-1.3,3.8-2.2v-0.9c0-0.7,0-1.1-0.1-1.3c-0.1-0.2-0.2-0.3-0.4-0.5c-0.2-0.1-0.4-0.2-0.7-0.2
					c-0.4,0-0.8,0.1-1,0.3c-0.2,0.1-0.2,0.2-0.2,0.4c0,0.1,0.1,0.3,0.3,0.5c0.2,0.3,0.4,0.5,0.4,0.8c0,0.3-0.1,0.6-0.3,0.8
					c-0.2,0.2-0.5,0.3-0.9,0.3c-0.4,0-0.7-0.1-1-0.4c-0.3-0.2-0.4-0.5-0.4-0.8c0-0.5,0.2-0.9,0.5-1.3c0.4-0.4,0.9-0.7,1.5-1
					c0.6-0.2,1.3-0.3,2-0.3c0.8,0,1.5,0.2,2,0.5c0.5,0.4,0.8,0.7,1,1.2c0.1,0.3,0.1,0.9,0.1,1.8v3.5c0,0.4,0,0.7,0,0.8
					c0,0.1,0.1,0.2,0.1,0.2c0.1,0,0.1,0.1,0.2,0.1c0.2,0,0.3-0.1,0.5-0.4l0.3,0.2c-0.3,0.5-0.6,0.8-1,1c-0.3,0.2-0.7,0.3-1.2,0.3
					c-0.5,0-0.9-0.1-1.2-0.4C181.8,117.3,181.6,117,181.6,116.5z M181.6,115.8v-3c-0.8,0.5-1.3,0.9-1.7,1.4c-0.2,0.3-0.4,0.7-0.4,1
					c0,0.3,0.1,0.5,0.3,0.8c0.2,0.2,0.4,0.3,0.7,0.3C180.8,116.3,181.2,116.1,181.6,115.8z"/>
			</g>
			<g>
				<path class="st2" d="M192.4,109h3v1h-1.7c0.3,0.3,0.5,0.6,0.6,0.8c0.2,0.3,0.2,0.7,0.2,1.1c0,0.6-0.2,1.2-0.5,1.7
					c-0.4,0.5-0.8,0.8-1.4,1.1c-0.6,0.3-1.1,0.4-1.6,0.4c0,0-0.4,0-1.1,0c-0.3,0-0.5,0.1-0.7,0.3c-0.2,0.2-0.3,0.4-0.3,0.7
					c0,0.2,0.1,0.4,0.3,0.6c0.2,0.1,0.5,0.2,0.9,0.2l1.6,0c1.3,0,2.2,0.1,2.7,0.4c0.7,0.4,1.1,1,1.1,1.9c0,0.5-0.2,1-0.5,1.5
					c-0.3,0.4-0.8,0.8-1.3,1c-0.8,0.3-1.8,0.5-2.8,0.5c-0.8,0-1.5-0.1-2.2-0.2c-0.7-0.2-1.1-0.4-1.4-0.6c-0.3-0.3-0.4-0.6-0.4-0.9
					c0-0.3,0.1-0.6,0.3-0.8c0.2-0.2,0.6-0.4,1.2-0.6c-0.8-0.4-1.2-1-1.2-1.7c0-0.4,0.2-0.9,0.5-1.3c0.3-0.4,0.9-0.8,1.6-1.1
					c-0.8-0.3-1.5-0.7-1.8-1.2c-0.4-0.5-0.6-1.1-0.6-1.8c0-0.9,0.4-1.6,1.1-2.3c0.7-0.6,1.6-1,2.7-1
					C191.2,108.6,191.8,108.8,192.4,109z M190.2,119.1c-0.6,0-1.1,0.1-1.3,0.2c-0.4,0.2-0.5,0.5-0.5,0.8c0,0.3,0.2,0.6,0.6,0.9
					c0.4,0.3,1.1,0.4,2.1,0.4c0.9,0,1.6-0.1,2.1-0.4c0.5-0.2,0.8-0.6,0.8-1c0-0.2,0-0.3-0.1-0.4c-0.2-0.2-0.4-0.3-0.8-0.4
					C192.7,119.1,191.7,119.1,190.2,119.1z M190.8,109.2c-0.4,0-0.7,0.2-0.9,0.6c-0.3,0.4-0.4,1.1-0.4,2.3c0,0.9,0.1,1.6,0.4,1.9
					c0.3,0.4,0.5,0.5,0.9,0.5c0.4,0,0.7-0.2,1-0.5c0.3-0.4,0.4-1,0.4-2c0-1.1-0.1-1.9-0.4-2.3C191.4,109.4,191.2,109.2,190.8,109.2z
					"/>
			</g>
			<g>
				<path class="st2" d="M201.7,116.5c-1.1,1-2.1,1.4-2.9,1.4c-0.5,0-0.9-0.2-1.3-0.5c-0.3-0.3-0.5-0.7-0.5-1.2
					c0-0.7,0.3-1.3,0.9-1.8c0.6-0.5,1.9-1.3,3.8-2.2v-0.9c0-0.7,0-1.1-0.1-1.3c-0.1-0.2-0.2-0.3-0.4-0.5c-0.2-0.1-0.4-0.2-0.7-0.2
					c-0.4,0-0.8,0.1-1,0.3c-0.2,0.1-0.2,0.2-0.2,0.4c0,0.1,0.1,0.3,0.3,0.5c0.2,0.3,0.4,0.5,0.4,0.8c0,0.3-0.1,0.6-0.3,0.8
					c-0.2,0.2-0.5,0.3-0.9,0.3c-0.4,0-0.7-0.1-1-0.4c-0.3-0.2-0.4-0.5-0.4-0.8c0-0.5,0.2-0.9,0.5-1.3c0.4-0.4,0.9-0.7,1.5-1
					c0.6-0.2,1.3-0.3,2-0.3c0.8,0,1.5,0.2,2,0.5c0.5,0.4,0.8,0.7,1,1.2c0.1,0.3,0.1,0.9,0.1,1.8v3.5c0,0.4,0,0.7,0,0.8
					c0,0.1,0.1,0.2,0.1,0.2c0.1,0,0.1,0.1,0.2,0.1c0.2,0,0.3-0.1,0.5-0.4l0.3,0.2c-0.3,0.5-0.6,0.8-1,1c-0.3,0.2-0.7,0.3-1.2,0.3
					c-0.5,0-0.9-0.1-1.2-0.4C202,117.3,201.8,117,201.7,116.5z M201.7,115.8v-3c-0.8,0.5-1.3,0.9-1.7,1.4c-0.2,0.3-0.4,0.7-0.4,1
					c0,0.3,0.1,0.5,0.3,0.8c0.2,0.2,0.4,0.3,0.7,0.3C200.9,116.3,201.3,116.1,201.7,115.8z"/>
			</g>
			<g>
				<path class="st2" d="M214.2,117.8h-7.7v-0.2l4.9-8.1h-1.4c-0.6,0-1.1,0.1-1.3,0.2c-0.3,0.1-0.5,0.3-0.6,0.5
					c-0.2,0.2-0.3,0.7-0.5,1.3h-0.3v-2.6h7.5v0.3l-4.9,8h0.6c1.2,0,2.1-0.2,2.6-0.5c0.5-0.4,0.9-1,1.2-1.9h0.3L214.2,117.8z"/>
			</g>
			<g>
				<path class="st2" d="M219.3,108.9v7c0,0.6,0.1,1,0.2,1.2c0.1,0.2,0.4,0.3,0.9,0.3v0.3h-4.8v-0.3c0.4,0,0.7-0.1,0.9-0.3
					c0.1-0.1,0.2-0.5,0.2-1.2v-5.2c0-0.6-0.1-1-0.2-1.2c-0.1-0.2-0.4-0.3-0.8-0.3v-0.4H219.3z M218,104.6c0.4,0,0.8,0.1,1,0.4
					c0.3,0.3,0.4,0.6,0.4,1s-0.1,0.8-0.4,1c-0.3,0.3-0.6,0.4-1,0.4c-0.4,0-0.8-0.1-1-0.4c-0.3-0.3-0.4-0.6-0.4-1s0.1-0.8,0.4-1
					C217.2,104.7,217.6,104.6,218,104.6z"/>
			</g>
			<g>
				<path class="st2" d="M225.2,108.9v1.2c0.5-0.5,0.9-0.9,1.3-1.1c0.4-0.2,0.9-0.3,1.4-0.3c0.6,0,1.1,0.2,1.4,0.5
					c0.4,0.3,0.6,0.7,0.8,1.2c0.1,0.4,0.2,1.1,0.2,2.1v3.5c0,0.7,0.1,1.1,0.2,1.3c0.1,0.2,0.4,0.3,0.8,0.3v0.3h-4.5v-0.3
					c0.3,0,0.6-0.2,0.7-0.4c0.1-0.2,0.2-0.6,0.2-1.2v-4c0-0.7,0-1.2-0.1-1.4c-0.1-0.2-0.2-0.3-0.3-0.4c-0.1-0.1-0.3-0.2-0.5-0.2
					c-0.5,0-1.1,0.4-1.5,1.2v4.8c0,0.7,0.1,1.1,0.2,1.3c0.1,0.2,0.4,0.3,0.7,0.3v0.3h-4.5v-0.3c0.4,0,0.6-0.2,0.8-0.4
					c0.1-0.1,0.2-0.6,0.2-1.2v-5c0-0.7-0.1-1.1-0.2-1.3c-0.1-0.2-0.4-0.3-0.8-0.3v-0.4H225.2z"/>
			</g>
			<g>
				<path class="st2" d="M240.3,113h-4.9c0.1,1.2,0.4,2.1,0.9,2.8c0.4,0.5,1,0.8,1.6,0.8c0.4,0,0.7-0.1,1-0.3c0.3-0.2,0.6-0.6,1-1.1
					l0.3,0.2c-0.5,1-1,1.7-1.6,2.1c-0.6,0.4-1.3,0.6-2,0.6c-1.3,0-2.3-0.5-3-1.5c-0.5-0.8-0.8-1.8-0.8-3c0-1.5,0.4-2.7,1.2-3.5
					c0.8-0.9,1.7-1.3,2.8-1.3c0.9,0,1.7,0.4,2.3,1.1C239.9,110.5,240.2,111.6,240.3,113z M237.9,112.4c0-1-0.1-1.7-0.2-2.1
					c-0.1-0.4-0.3-0.7-0.5-0.9c-0.1-0.1-0.3-0.2-0.5-0.2c-0.3,0-0.6,0.2-0.8,0.5c-0.4,0.6-0.6,1.3-0.6,2.3v0.3H237.9z"/>
			</g>
		</g>
	</g>
	<g>
		<path class="st2" d="M414.2,76.4c21.7-0.8,39.1-17.4,39.1-37.7c0-20.3-17.4-36.9-39.1-37.7c-0.5,0-1-0.1-1.5-0.1
			c-0.5,0-1,0-1.5,0.1C389.4,1.8,372,18.4,372,38.7c0,20.3,17.4,36.9,39.1,37.7c0.5,0,1,0.1,1.5,0.1
			C413.2,76.5,413.7,76.5,414.2,76.4z M413,75.8V53.9h24C432.8,66.7,423.7,75.6,413,75.8z M412.3,38.4H386c0-5.4,0.9-10.4,2.4-15
			h23.9V38.4z M413,23.4h24c1.5,4.6,2.4,9.7,2.4,15H413V23.4z M412.3,39.1v14.1h-24.2c-1.3-4.3-2.1-9.1-2.1-14.1H412.3z M413,39.1
			h26.4c0,5-0.8,9.8-2.1,14.1H413V39.1z M419.8,75.2c8.1-3,14.6-10.9,18-21.3h11.3C443.7,64.9,432.9,73,419.8,75.2z M449.4,53.2H438
			c1.3-4.4,2.1-9.1,2.1-14.1h12.5C452.6,44.1,451.4,48.8,449.4,53.2z M452.6,38.4h-12.5c0-5.3-0.9-10.4-2.4-15H449
			C451.3,28,452.6,33.1,452.6,38.4z M448.6,22.6h-11.2c-3.4-9.9-9.8-17.4-17.6-20.3C432.5,4.4,443.1,12.2,448.6,22.6z M436.7,22.6
			H413V1.7C423.4,1.9,432.4,10.4,436.7,22.6z M412.3,1.7v20.9h-23.7C392.9,10.4,401.9,1.9,412.3,1.7z M405.5,2.3
			c-7.8,2.9-14.2,10.4-17.6,20.3h-11.2C382.2,12.2,392.8,4.4,405.5,2.3z M376.3,23.4h11.3c-1.5,4.6-2.3,9.7-2.4,15h-12.5
			C372.7,33.1,374,28,376.3,23.4z M372.7,39.1h12.5c0,5,0.8,9.7,2.1,14.1h-11.4C373.9,48.8,372.8,44.1,372.7,39.1z M376.3,53.9h11.3
			c3.3,10.3,9.9,18.3,18,21.3C392.4,73,381.6,64.9,376.3,53.9z M388.3,53.9h24v21.8C401.6,75.6,392.5,66.7,388.3,53.9z"/>
		<polygon class="st2" points="377,10.4 380.6,10.4 380.6,8.5 371,8.5 371,10.3 374.8,10.4 361.6,54.5 350.6,10.3 354.2,10.3 
			354.2,8.5 336.1,8.5 336.1,10.3 339.3,10.3 347,38.6 340.2,56.4 328.8,10.3 332.2,10.3 332.2,8.5 314.3,8.4 314.3,10.2 
			317.6,10.2 333.3,68.6 333.4,68.9 337.4,68.9 347.9,41.7 355.3,68.7 355.3,68.9 359.3,69 		"/>
		<path class="st2" d="M271.5,60.1c2.8,2.7,6.1,4.9,9.8,6.4c3.7,1.6,7.6,2.3,11.6,2.3c1.8,0,3.5-0.2,5-0.5c1.5-0.3,3-0.6,4.4-1
			c1.3-0.4,2.5-0.7,3.5-1c2.1-0.6,3.3-0.5,4-0.1c0.3,0.2,0.6,0.6,0.8,1.2l0.1,0.2h1.9V49.8h-1.9l-0.1,0.3c-0.5,2.2-1.2,4.3-2.3,6.3
			c-1,2-2.3,3.8-3.8,5.4c-1.5,1.6-3.2,2.8-5.1,3.8c-1.9,0.9-4.1,1.4-6.5,1.4c-3,0-5.6-0.4-7.7-1.3c-2.1-0.8-3.9-2.3-5.2-4.4
			c-1.3-2.1-2.4-5-3-8.6c-0.6-3.7-1-8.3-1-13.9c0-4.3,0.2-8.2,0.5-11.8c0.3-3.5,1.1-6.6,2.2-9.2c1.1-2.5,2.8-4.5,5-5.9
			c2.2-1.4,5.3-2.1,9.2-2.1c2.9,0,5.3,0.5,7.2,1.5c1.9,1,3.6,2.4,4.8,4c1.3,1.6,2.4,3.4,3.2,5.4c0.8,1.9,1.5,3.8,2.2,5.6l0.1,0.2
			h1.6V9.2h-1.9l-0.1,0.3c-0.1,0.6-0.4,1.1-0.6,1.2c-0.6,0.3-2.1,0.4-4-0.2c-1.1-0.3-2.3-0.7-3.5-1c-1.3-0.4-2.7-0.7-4.2-1
			c-1.5-0.3-3.2-0.5-4.9-0.5c-3.5,0-7.1,0.7-10.7,2.2c-3.6,1.4-6.9,3.5-9.9,6.2c-2.9,2.7-5.4,5.9-7.3,9.7c-1.9,3.8-2.8,8-2.8,12.7
			c0,4.3,0.9,8.3,2.5,11.9C266.5,54.2,268.7,57.4,271.5,60.1z"/>
		<path class="st2" d="M447.9,9.1v1.8h7.5v54.9h-7.5v1.8h27.5v-1.8h-7.6V39.6h5.1c1.8,0,3.4,0.3,4.6,0.9c1.2,0.6,2.3,1.5,3.1,2.5
			c0.8,1.1,1.5,2.3,2,3.8c0.5,1.5,1,3,1.3,4.5l0.1,0.3h1.7V25.7h-1.7l-0.1,0.3c-0.4,1.8-0.8,3.4-1.4,4.9c-0.6,1.4-1.3,2.7-2.2,3.7
			c-0.9,1-2,1.8-3.3,2.3c-1.4,0.6-3,0.8-5,0.8h-4.2V10.9h11.9c2.1,0,4,0.3,5.5,0.9c1.5,0.6,2.9,1.4,4.1,2.5c1.2,1.1,2.2,2.4,3.1,3.9
			c0.9,1.5,1.7,3.3,2.4,5.2l0.1,0.2h1.6V9.1H447.9z"/>
		<path class="st2" d="M267.1,82.7c1.7,0,3,1.1,3.3,2.9l0,0.1h1.4l0-0.2c-0.4-2.5-2.2-4-4.7-4c-1.3,0-2.6,0.5-3.5,1.4
			c-1.3,1.3-1.3,2.5-1.3,5.5c0,3,0,4.2,1.3,5.5c0.9,0.9,2.2,1.4,3.5,1.4c2.5,0,4.3-1.6,4.7-4l0-0.2h-1.3l0,0.1
			c-0.4,1.8-1.7,2.9-3.4,2.9c-0.9,0-1.8-0.3-2.4-1c-0.9-0.9-1-1.9-1-4.7c0-2.8,0.1-3.8,1-4.7C265.3,83,266.2,82.7,267.1,82.7z"/>
		<path class="st2" d="M276.2,85.7c-1,0-1.9,0.4-2.6,1c-1,1-1.2,2.6-1.2,3.8c0,1.2,0.1,2.7,1.2,3.8c0.7,0.7,1.6,1,2.6,1
			c1.1,0,2-0.4,2.6-1c1-1,1.2-2.6,1.2-3.8c0-1.2-0.1-2.7-1.2-3.8C278.1,86.1,277.2,85.7,276.2,85.7z M278.7,90.6
			c0,1-0.1,2.2-0.8,2.9c-0.5,0.5-1.1,0.7-1.8,0.7c-0.7,0-1.3-0.3-1.8-0.7c-0.7-0.7-0.8-1.9-0.8-2.9c0-1,0.1-2.2,0.8-2.9
			c0.5-0.5,1.1-0.7,1.8-0.7c0.7,0,1.3,0.3,1.8,0.7l0,0C278.6,88.3,278.7,89.5,278.7,90.6z"/>
		<path class="st2" d="M290.7,85.7c-1.3,0-2.4,0.5-3.1,1.5c-0.6-1-1.6-1.5-2.9-1.5c-1,0-1.9,0.3-2.5,0.9v-0.8h-1.3v9.4h1.3v-5.8
			c0-1.6,0.9-2.5,2.4-2.5c1.5,0,2.3,0.9,2.3,2.5v5.8h1.3v-6c0-1.4,0.9-2.4,2.4-2.4c1.5,0,2.3,0.9,2.3,2.5v5.8h1.3v-6
			c0-1.1-0.3-2-1-2.6C292.6,86.1,291.7,85.7,290.7,85.7z"/>
		<path class="st2" d="M305.3,85.7c-1.3,0-2.3,0.5-3.1,1.5c-0.6-1-1.6-1.5-2.9-1.5c-1,0-1.8,0.3-2.5,0.9v-0.8h-1.3v9.4h1.3v-5.8
			c0-1.6,0.9-2.5,2.4-2.5c1.5,0,2.3,0.9,2.3,2.5v5.8h1.3v-6c0-1.4,0.9-2.4,2.4-2.4c1.5,0,2.3,0.9,2.3,2.5v5.8h1.3v-6
			c0-1.1-0.3-2-1-2.6C307.2,86.1,306.3,85.7,305.3,85.7z"/>
		<path class="st2" d="M316.1,86.8c-0.7-0.7-1.6-1-2.6-1c-1,0-1.9,0.4-2.6,1c-1,1-1.2,2.6-1.2,3.8c0,1.2,0.1,2.7,1.2,3.8
			c0.7,0.7,1.6,1,2.6,1c1,0,2-0.4,2.6-1h0c1-1,1.2-2.6,1.2-3.8C317.3,89.4,317.1,87.8,316.1,86.8z M316,90.6c0,1-0.1,2.2-0.8,2.9
			c-0.5,0.5-1.1,0.7-1.7,0.7c-0.7,0-1.3-0.3-1.8-0.7c-0.7-0.7-0.8-1.8-0.8-2.9c0-1.1,0.1-2.2,0.8-2.9c0.5-0.5,1.1-0.7,1.8-0.7
			c0.7,0,1.3,0.3,1.7,0.7l0,0C315.9,88.4,316,89.5,316,90.6z"/>
		<path class="st2" d="M322,85.7c-1,0-1.8,0.3-2.5,0.9v-0.8h-1.3v9.4h1.3v-5.8c0-1.6,0.9-2.5,2.4-2.5c1.5,0,2.3,0.9,2.3,2.5v5.8h1.3
			v-6c0-1.1-0.3-2-1-2.6C323.9,86.1,323,85.7,322,85.7z"/>
		<polygon class="st2" points="338.7,81.5 336,92.7 333,81.7 333,81.5 331.7,81.5 328.7,92.7 326,81.7 326,81.5 324.6,81.5 
			328,95.1 328,95.2 329.3,95.2 332.3,84.1 335.4,95.2 336.6,95.2 340.1,81.5 		"/>
		<path class="st2" d="M342.6,85.7c-2.4,0-3.8,1.8-3.8,4.8c0,3.1,1.4,4.8,4,4.8c1.6,0,2.5-0.6,3.4-1.4l0.1-0.1l-1-0.8l-0.1,0.1
			c-0.8,0.8-1.4,1-2.4,1c-2.2,0-2.7-1.7-2.8-3.2h6.3v-0.6C346.4,87.5,344.9,85.7,342.6,85.7z M345.1,89.8h-5c0-0.7,0.1-1,0.3-1.5
			c0.4-0.9,1.2-1.4,2.2-1.4c1,0,1.8,0.5,2.2,1.4C345,88.9,345,89.1,345.1,89.8z"/>
		<path class="st2" d="M350.9,85.7c-1.6,0-2.6,0.4-3.3,1.5l-0.1,0.1l1,0.8l0.1-0.2c0.5-0.8,1.2-1.1,2.4-1.1c1.7,0,2.4,0.6,2.4,2v0.8
			h-2.8c-2.1,0-3.3,1-3.3,2.8c0,0.7,0.3,1.4,0.7,1.9c0.6,0.6,1.4,0.9,2.8,0.9c1.2,0,1.9-0.2,2.6-0.8v0.7h1.3v-6.4
			C354.6,87.5,354,85.7,350.9,85.7z M353.3,91.9c0,0.8-0.1,1.3-0.5,1.6c-0.6,0.6-1.4,0.6-2.1,0.6c-1.5,0-2.2-0.5-2.2-1.6
			c0-1.1,0.7-1.6,2.1-1.6h2.6V91.9z"/>
		<path class="st2" d="M357.2,92.7V81.5h-1.3v11.2c0,1.6,0.9,2.5,2.3,2.5h1v-1.2h-0.8C357.5,94.1,357.2,93.7,357.2,92.7z"/>
		<path class="st2" d="M361,83h-1.3v2.9h-1.2v1.1h1.2v5.8c0,1.6,0.9,2.5,2.3,2.5h1v-1.2h-0.8c-0.8,0-1.2-0.4-1.2-1.3v-5.8h2v-1.1h-2
			V83z"/>
		<path class="st2" d="M367.5,85.7c-1,0-1.8,0.3-2.5,0.9v-5.1h-1.3v13.7h1.3v-5.8c0-1.6,0.9-2.5,2.4-2.5c1.5,0,2.3,0.9,2.3,2.5v5.8
			h1.3v-6C371.1,87.1,369.7,85.7,367.5,85.7z"/>
		<polygon class="st2" points="379.2,95.2 387.6,95.2 387.6,94 380.5,94 380.5,89 386.6,89 386.6,87.7 380.5,87.7 380.5,82.8 
			387.6,82.8 387.6,81.5 379.2,81.5 		"/>
		<path class="st2" d="M391.9,86.9c0.9,0,1.5,0.3,2.2,1.1l0.1,0.1l0.9-0.8l-0.1-0.1c-1-1.1-1.8-1.4-3.1-1.4c-2.6,0-4.1,1.8-4.1,4.8
			c0,3,1.6,4.8,4.1,4.8c1.3,0,2.1-0.4,3.1-1.4l0.1-0.1l-0.9-0.8l-0.1,0.1c-0.7,0.8-1.3,1.1-2.2,1.1c-1,0-1.8-0.4-2.3-1.1
			c-0.4-0.6-0.6-1.3-0.6-2.5c0-1.2,0.2-1.9,0.6-2.5C390.2,87.3,391,86.9,391.9,86.9z"/>
		<path class="st2" d="M399,85.7c-1,0-1.9,0.4-2.6,1c-1,1-1.2,2.6-1.2,3.8c0,1.2,0.1,2.7,1.2,3.8c0.7,0.7,1.6,1,2.6,1
			c1.1,0,2-0.4,2.6-1c1-1,1.2-2.6,1.2-3.8c0-1.2-0.1-2.7-1.2-3.8C401,86.1,400,85.7,399,85.7z M401.5,90.6c0,1-0.1,2.2-0.8,2.9
			c-0.5,0.5-1.1,0.7-1.8,0.7c-0.7,0-1.3-0.3-1.8-0.7c-0.7-0.7-0.8-1.9-0.8-2.9c0-1,0.1-2.2,0.8-2.9c0.5-0.5,1.1-0.7,1.8-0.7
			c0.7,0,1.3,0.3,1.8,0.7l0,0C401.5,88.4,401.5,89.5,401.5,90.6z"/>
		<path class="st2" d="M407.5,85.7c-1,0-1.8,0.3-2.5,0.9v-0.8h-1.3v9.4h1.3v-5.8c0-1.6,0.9-2.5,2.4-2.5c1.5,0,2.3,0.9,2.3,2.5v5.8
			h1.3v-6c0-1.1-0.3-2-1-2.6C409.4,86.1,408.6,85.7,407.5,85.7z"/>
		<path class="st2" d="M415.7,85.7c-1,0-2,0.4-2.6,1c-1,1.1-1.2,2.6-1.2,3.8c0,1.2,0.1,2.7,1.2,3.8c0.7,0.7,1.6,1,2.6,1
			c1,0,2-0.4,2.6-1c1-1,1.2-2.6,1.2-3.8c0-1.2-0.1-2.7-1.2-3.8C417.6,86.1,416.7,85.7,415.7,85.7z M418.2,90.6
			c0,1.1-0.1,2.2-0.8,2.9c-0.5,0.5-1.1,0.7-1.8,0.7c-0.7,0-1.3-0.3-1.8-0.7c-0.7-0.7-0.8-1.8-0.8-2.9c0-1.1,0.1-2.2,0.8-2.9
			c0.5-0.5,1.1-0.7,1.8-0.7c0.7,0,1.3,0.3,1.8,0.7l0,0C418.1,88.3,418.2,89.5,418.2,90.6z"/>
		<path class="st2" d="M430.2,85.7c-1.3,0-2.3,0.5-3.1,1.5c-0.6-1-1.6-1.5-2.9-1.5c-1,0-1.8,0.3-2.5,0.9v-0.8h-1.3v9.4h1.3v-5.8
			c0-1.6,0.9-2.5,2.4-2.5c1.5,0,2.3,0.9,2.3,2.5v5.8h1.3v-6c0-1.4,0.9-2.4,2.4-2.4c1.5,0,2.3,0.9,2.3,2.5v5.8h1.3v-6
			c0-1.1-0.3-2-1-2.6C432.1,86.1,431.2,85.7,430.2,85.7z"/>
		<rect x="435" y="85.9" class="st2" width="1.3" height="9.4"/>
		<rect x="434.9" y="81.5" class="st2" width="1.5" height="1.5"/>
		<polygon class="st2" points="452.6,82.8 459.7,82.8 459.7,81.5 451.2,81.5 451.2,95.2 452.6,95.2 452.6,89.2 458.6,89.2 
			458.6,87.9 452.6,87.9 		"/>
		<path class="st2" d="M463.2,85.7c-1,0-2,0.4-2.6,1c-1,1-1.2,2.6-1.2,3.8c0,1.2,0.1,2.7,1.2,3.8c0.7,0.7,1.6,1,2.6,1
			c1.1,0,2-0.4,2.6-1c1-1,1.2-2.6,1.2-3.8c0-1.2-0.1-2.7-1.2-3.8C465.2,86.1,464.3,85.7,463.2,85.7z M465.8,90.6
			c0,1-0.1,2.2-0.8,2.9c-0.5,0.5-1.1,0.7-1.8,0.7c-0.7,0-1.3-0.3-1.8-0.7c-0.7-0.7-0.8-1.9-0.8-2.9c0-1,0.1-2.2,0.8-2.9
			c0.5-0.5,1.1-0.7,1.8-0.7c0.7,0,1.3,0.3,1.8,0.7C465.7,88.4,465.8,89.5,465.8,90.6z"/>
		<path class="st2" d="M471.7,85.7c-1,0-1.9,0.4-2.5,1v-0.9H468v9.4h1.3v-5.7c0-1.2,0.7-2.6,2.3-2.6c0.7,0,1.1,0.2,1.6,0.7l0.1,0.1
			l0.9-0.9l-0.1-0.1C473.4,86,472.7,85.7,471.7,85.7z"/>
		<path class="st2" d="M480.4,91.6c0,1.6-0.9,2.5-2.4,2.5c-1.5,0-2.3-0.9-2.3-2.5v-5.8h-1.3v5.9c0,1.1,0.3,2,1,2.6
			c0.6,0.6,1.5,0.9,2.5,0.9c1,0,1.8-0.3,2.5-0.9v0.8h1.3v-9.4h-1.3V91.6z"/>
		<path class="st2" d="M493,85.7c-1.3,0-2.3,0.5-3.1,1.5c-0.6-1-1.6-1.5-2.9-1.5c-1,0-1.8,0.3-2.5,0.9v-0.8h-1.3v9.4h1.3v-5.8
			c0-1.6,0.9-2.5,2.4-2.5c1.5,0,2.3,0.9,2.3,2.5v5.8h1.3v-6c0-1.5,0.9-2.4,2.4-2.4c1.5,0,2.3,0.9,2.3,2.5v5.8h1.3v-6
			c0-1.1-0.3-2-1-2.6C494.8,86.1,494,85.7,493,85.7z"/>
		<path class="st2" d="M443.6,93.3c-0.7,0.8-1.3,1.1-2.2,1.1c-1,0-1.7-0.4-2.3-1.1c-0.4-0.6-0.6-1.3-0.6-2.5c0-1.2,0.2-1.8,0.6-2.5
			c0.5-0.7,1.3-1.1,2.3-1.1c0.9,0,1.5,0.3,2.2,1.1l0.1,0.1l0.9-0.8l-0.1-0.1c-1-1.1-1.8-1.4-3.1-1.4c-2.6,0-4.1,1.8-4.1,4.8
			c0,3,1.6,4.8,4.1,4.8c1.3,0,2.1-0.4,3.1-1.4l0.1-0.1l-0.9-0.8L443.6,93.3z"/>
	</g>
	<g>
		<g>
			<path class="st3" d="M438,9.4v13.9h-1.1c-0.3-0.9-0.7-2.1-1.4-3.5c-0.7-1.4-1.6-2.8-2.7-4.2c-1.2-1.4-2.7-2.5-4.5-3.5
				c-1.8-1-4.1-1.5-6.7-1.5h-14.9v27.6h4.6c2,0,3.7-0.3,5.1-0.9c1.4-0.6,2.5-1.4,3.5-2.4c0.9-1.1,1.7-2.3,2.3-3.8
				c0.6-1.5,1.1-3.2,1.5-5h1.1v25.3h-1.1c-0.4-1.6-0.8-3.1-1.3-4.5c-0.5-1.5-1.2-2.8-2.1-3.9c-0.9-1.1-1.9-2-3.2-2.6
				c-1.3-0.7-2.9-1-4.8-1h-5.4v26.8H420c2.5,0,4.7-0.4,6.7-1.3c2-0.8,3.8-2,5.3-3.5c1.5-1.5,2.8-3.3,3.9-5.3c1-2,1.8-4.2,2.3-6.5
				h1.1v17.8h-52.7v-1.1h8.3V10.6h-7.5V9.4H438z"/>
			<path class="st3" d="M439.5,67.5h-53.1v-1.5h8.3V10.8h-7.5V9.2h51v14.3h-1.4l0-0.1c-0.3-0.9-0.7-2-1.4-3.5
				c-0.6-1.4-1.6-2.8-2.7-4.1c-1.2-1.3-2.7-2.5-4.5-3.5c-1.8-1-4-1.5-6.6-1.5h-14.7v27.2h4.4c2,0,3.6-0.3,5-0.8
				c1.3-0.6,2.5-1.4,3.4-2.4c0.9-1,1.6-2.3,2.2-3.8c0.6-1.5,1.1-3.1,1.5-5l0-0.2h1.4v25.7h-1.4l0-0.2c-0.4-1.6-0.8-3.1-1.3-4.5
				c-0.5-1.4-1.2-2.7-2-3.8c-0.9-1.1-1.9-1.9-3.1-2.6c-1.2-0.6-2.8-1-4.7-1h-5.2v26.4H420c2.4,0,4.7-0.4,6.7-1.2
				c2-0.8,3.7-2,5.3-3.5c1.5-1.5,2.8-3.3,3.8-5.3c1-2,1.8-4.2,2.3-6.5l0-0.2h1.4V67.5z M386.8,67h52.3V49.7h-0.7
				c-0.6,2.3-1.3,4.5-2.3,6.4c-1,2-2.4,3.9-3.9,5.4c-1.6,1.5-3.4,2.7-5.4,3.6c-2,0.8-4.3,1.3-6.8,1.3h-13.5V39.1h5.6
				c1.9,0,3.5,0.3,4.8,1c1.3,0.7,2.4,1.6,3.3,2.7c0.9,1.1,1.6,2.5,2.1,3.9c0.5,1.4,0.9,2.9,1.3,4.4h0.7V26.2h-0.7
				c-0.4,1.8-0.9,3.4-1.4,4.9c-0.6,1.5-1.4,2.8-2.3,3.9c-0.9,1.1-2.1,1.9-3.5,2.5c-1.4,0.6-3.1,0.9-5.2,0.9h-4.8v-28h15.1
				c2.7,0,5,0.5,6.8,1.5c1.8,1,3.4,2.2,4.6,3.6c1.2,1.3,2.1,2.8,2.7,4.2c0.6,1.4,1.1,2.5,1.3,3.4h0.7V9.6h-50.2v0.7h7.5v56h-8.3V67z
				"/>
		</g>
		<g>
			<path class="st3" d="M347,118c-2,0-3.4-0.5-4.6-1.7l1.3-1.3c1,0.9,2,1.2,3.3,1.2c1.7,0,2.7-0.7,2.7-2c0-0.6-0.2-1-0.5-1.4
				c-0.3-0.3-0.7-0.4-1.4-0.5l-1.5-0.2c-1.1-0.1-1.9-0.5-2.5-1c-0.6-0.6-0.9-1.4-0.9-2.5c0-2.3,1.6-3.8,4.3-3.8c1.7,0,2.9,0.4,4,1.5
				l-1.3,1.2c-0.8-0.8-1.7-1-2.8-1c-1.5,0-2.4,0.9-2.4,2c0,0.5,0.2,0.9,0.5,1.2c0.3,0.3,0.9,0.5,1.5,0.6l1.5,0.2
				c1.2,0.2,1.9,0.5,2.4,1c0.7,0.6,1.1,1.6,1.1,2.7C351.6,116.6,349.7,118,347,118z"/>
		</g>
		<g>
			<path class="st3" d="M358.7,118c-2.7,0-4.7-1.8-4.7-4.5v-8.6h2v8.5c0,1.7,1.1,2.8,2.7,2.8c1.6,0,2.7-1.1,2.7-2.8v-8.5h2v8.6
				C363.4,116.2,361.4,118,358.7,118z"/>
		</g>
		<g>
			<path class="st3" d="M376.1,117.9v-8.7l-3,6.3h-1.5l-3.1-6.3v8.7h-2v-13h2l3.8,8.1l3.7-8.1h2v13H376.1z"/>
		</g>
		<g>
			<path class="st3" d="M391,117.9v-8.7l-3,6.3h-1.5l-3.1-6.3v8.7h-2v-13h2l3.8,8.1l3.7-8.1h2v13H391z"/>
		</g>
		<g>
			<path class="st3" d="M396.3,117.9v-13h8.3v1.8h-6.3v3.8h5.4v1.8h-5.4v3.9h6.3v1.8H396.3z"/>
		</g>
		<g>
			<path class="st3" d="M414.5,117.9l-2.7-5.5h-2.5v5.5h-2v-13h5c2.5,0,4,1.6,4,3.8c0,1.9-1.1,3-2.6,3.5l3,5.8H414.5z M412.2,106.7
				h-2.9v4.1h2.9c1.3,0,2.2-0.7,2.2-2C414.4,107.4,413.5,106.7,412.2,106.7z"/>
		</g>
		<g>
			<rect x="421.7" y="110.3" class="st3" width="73.9" height="0.5"/>
		</g>
		<g>
			<rect x="263.3" y="110.3" class="st3" width="73.9" height="0.5"/>
		</g>
	</g>
</g>
</svg>
