<svg id="LINE1" xmlns="http://www.w3.org/2000/svg" xmlns:xlink="http://www.w3.org/1999/xlink" viewBox="0 0 798.85 295.87"><defs><style>.cls-1{fill:url(#未命名漸層_8);}</style><radialGradient id="未命名漸層_8" cx="398.36" cy="147.94" r="301.89" gradientUnits="userSpaceOnUse"><stop offset="0" stop-color="#f5cb43"/><stop offset="1" stop-color="#fff"/></radialGradient></defs><path class="cls-1" d="M798.73,170.06a106.62,106.62,0,0,0-14.66-48.18c-15.92-27.31-40.94-51.08-74.34-70.66C682,35,648.09,21.61,611.72,12.61c-42-10.38-83.36-14.39-123-11.89C445.27,3.46,405.41,14,370.27,32.07c-27.91,14.34-53.47,31.43-73.5,45.55h0c-1.4.91-2.88,1.95-4.49,3.18l-1,.73h-.05C253.42,75,216,75.26,180.18,82.37c-32.86,6.89-63,19.16-87.06,35.49-26.66,17.62-45.38,39.84-55.63,66a116.85,116.85,0,0,0-4.79,15.75l.27.07a127.51,127.51,0,0,1,22.57-46.58,159.87,159.87,0,0,1,37.74-35h0c35.55-23.5,84.66-37.73,134.73-39A286.65,286.65,0,0,1,288,83.89l.19,0c-4.43,3.33-9.64,7.18-15.23,11.27l-.45-.08a284.32,284.32,0,0,0-67-2.64c-32.9,2.67-64.53,11-91.45,24A182.5,182.5,0,0,0,75,141.57a138,138,0,0,0-29.48,34.66,117.64,117.64,0,0,0-11,24.18h0l.26.09h0a124.73,124.73,0,0,1,11-24.11h0c11.45-19.13,28.43-35.64,50.49-49.09,19.59-12,43-21.17,67.64-26.66,33.84-7.55,69.26-8.57,105.25-3l.46.06c-4.87,3.56-10,7.24-15,10.88l-.28,0c-8.26-1.07-16.52-1.76-24.53-2.07-35.66-1.37-70.77,3.83-101.5,15a189.72,189.72,0,0,0-44.91,23.17,142.77,142.77,0,0,0-35,34.95h0a122.36,122.36,0,0,0-12.1,21.6h0l.26.11h0a130.19,130.19,0,0,1,12.07-21.56h0C61,162,78.23,147.11,99.86,135.36c19.36-10.53,42.25-18.33,66.19-22.57a276.79,276.79,0,0,1,81.44-2.06c.85.13,1.9.26,3.2.4l.23,0c-5.26,3.79-10.4,7.48-15.14,10.87a264.73,264.73,0,0,0-88.58,5,210.41,210.41,0,0,0-41.78,14.4A165.26,165.26,0,0,0,69,164.6h0A131.87,131.87,0,0,0,38,202l.25.13a137.43,137.43,0,0,1,30.93-37.26c19.73-16.48,44.77-28.35,74.42-35.28,26.12-6.11,55.28-8.1,84.36-5.76,1.49.12,3,.26,4.72.43-6.23,4.46-11.59,8.28-15.34,10.94-36.39-3.24-71.84,1-102.54,12.16h0c-20.75,7.25-38.94,17.82-54,31.41a136.83,136.83,0,0,0-21,24l.11.07.12.08a142.21,142.21,0,0,1,33.19-33.46,171.12,171.12,0,0,1,41.68-21.83h0c29.2-10.2,63.56-13.74,99.4-10.25l-2.64,1.87c-9.58,6.65-18.38,12.52-26.8,17.86-30.17,18.53-56.94,32.2-81.82,41.78C73.19,210.35,39.47,214.72,0,212.21l0,.28c25.1,1.9,58.19,3.2,91.61-3.72s66.65-20.53,101.73-41.63c11.91-7.17,24.4-15.27,38-24.68l4.17-2.84-.69.47,2.79.54-3.35,2.42c-16.08,10.85-30.13,19.65-43.94,27.49C159.69,188,130,201.08,102,209.49a226.15,226.15,0,0,1-51,8A247.68,247.68,0,0,1-.48,214l-.05.27h0a304.07,304.07,0,0,0,76.06,4.82,265.54,265.54,0,0,0,74.4-15.86c39.94-14.8,75.55-37.23,102.78-55.87l3.63-2.61c1,.25,2,.5,3,.76l-3.83,2.6C241.09,157.73,228,165.9,215.66,173a486.45,486.45,0,0,1-93.45,41.06A214.61,214.61,0,0,1-1,215.81l-.08.27A264.67,264.67,0,0,0,83.87,227a268.54,268.54,0,0,0,83.94-16.92c40.93-15.23,77.23-37.8,105-56.55,1.48-.9,3-1.82,4.49-2.77l2.35.76-4.28,2.91c-27.55,18-51.3,31.72-74.34,42.81-34.5,16.61-68,27.22-99.63,31.54-37.34,5.1-71.95,1.35-102.9-11.14l-.11.26C51,239.79,110.73,241.4,171.16,222.5c21.12-6.42,42.4-15.44,65.05-27.56a632.73,632.73,0,0,0,55.63-34s1.17-1,4.48-3.39l3.05,1.24c-1.95,1.3-3.64,2.41-5,3.27-41.87,27.19-77.94,45.72-113.06,58.06-33.13,11.65-64.2,18-92.34,18.95-33.64,1.12-64.25-5.51-91-19.65l-.13.24A227.46,227.46,0,0,0,19.66,229.9c32.46,12.91,68.2,17.55,106.22,13.82,34.16-3.35,69-13.27,103.45-29.46,24.63-11.57,50.3-26.27,80.43-46.07l4-2.73.05,0-.1.07c22.39,11.1,42.61,24.36,64,38.39l4.56,3A603.49,603.49,0,0,0,507,269.65c43.94,15.89,85.06,24.65,122.23,26q5.13.19,10.14.19c42.85,0,79.11-10.45,107.9-31.13,17.44-12.53,31.49-28.33,40.64-45.69A93.9,93.9,0,0,0,798.73,170.06Zm-492.27-82c1.29.32,2.57.66,3.83,1-4.74,3.26-10,6.89-15.36,10.69L291.78,99C297.47,94.79,302.5,91,306.46,88.06ZM290.84,120l4.07,1.08c-4.88,3.39-9.6,6.65-14,9.67l-3.6-1.05-1.36,1Zm91.47,12.26c-6-3.12-12.5-6.18-12.5-6.18l-.31-.16,13.06-9.68,4.14,2.21,26.49,14.2c8.51,4.93,19.13,11.15,32.64,19,38.63,22.44,147.35,78.15,213.86,74.63s91.1-39.38,91.62-65-14.63-49.95-30.53-67.15-37.44-30.49-53.46-38.59-48.37-19.18-73.64-22-37.91-2.37-63.23.31-56.57,14.4-68.88,19.25-28,13.78-43,22.82c-10.47,6.31-30,20.12-44.46,30.52-1.35-.59-2.7-1.17-4.06-1.74,25.19-18.49,54.57-38.82,80.35-50.23,45.17-20,74.11-23.47,102.8-24.89S643.28,36,681,60.53s45.54,33.4,56.64,49.38,20.75,35,18.28,59-16.47,34-30.2,45.74-48.45,25.43-90.27,21-71.49-13.29-118.7-33.3-63.55-30.21-80.7-39.54S388.29,135.38,382.31,132.26Zm5-19.48c14.41-11,28.57-21.63,43.32-31.58,31.85-21.26,67.48-35.6,103-41.47a223.15,223.15,0,0,1,55.43-2.28A205.22,205.22,0,0,1,644.19,50c21.38,8.1,40.35,18.81,56.37,31.84,8.54,6.93,24.45,21.42,35.19,40.51,10.25,18.24,12.78,35.26,7.51,50.6-4,11.67-13.65,22.1-29.56,31.88-15.1,9-33.45,13.8-54.55,14.21-16.9.34-36-2.14-56.76-7.35-41.08-10.29-79.51-27.75-111.68-43.47-17.67-8.63-35-18.36-51.82-27.78-14.79-8.29-30.09-16.86-45.52-24.64C391.34,114.75,389.31,113.74,387.32,112.78Zm-18-2.86-10.07,7.29-3.17,2.24-3.71-1.6c4.14-3.09,8.49-6.34,13-9.67C366.78,108.78,368.09,109.36,369.34,109.92Zm-21.06,11h0l3.55,1.54-13.44,9.42-3.13-1.32c4-2.91,8.35-6.15,13-9.64Zm17.3,7.91.27.13h0l.08,0s9.35,4.93,25.85,14.2S459,184.17,495.25,200s91,41.38,151,43.49S738.17,217.69,751,199.87s15-38.09,7.77-61S733,95.42,719.31,83.27,669,42.5,618.7,32.32,553,23.58,517,26.84,438.4,46.64,409.8,63.26c-18.18,10.56-38,24.15-54.48,35.75-1.31-.48-2.6-.94-3.9-1.39,15.47-11.19,31.48-22.2,47.87-31.83,46.49-27.3,82.07-37.89,127.05-42.44S620.22,28.23,647.54,39,708.48,64.56,737,96.26s32.71,55.07,30.54,80.07-24.15,49.1-55.64,64.37-67.6,14.15-107.35,8.86S515,223.22,481.72,208.81,392.79,160.37,369.34,147c-5.4-3.08-11.08-6-16.64-8.65Zm-14.8-26.62c-5,3.55-9.63,6.85-13.7,9.74-1.17-.42-2.34-.82-3.5-1.22q6.66-5,13.47-9.93C348.32,101.27,349.56,101.75,350.78,102.21Zm-17.71,12.57L331.31,116c-3.31,2.32-7.42,5.18-11.9,8.27-1.56-.58-2.44-.89-2.44-.89l-.3-.12,13.11-9.73Zm-33.4,3c-1.38-.38-2.78-.75-4.18-1.11l13.95-10c1.42.43,2.83.87,4.22,1.32C309,111.25,304.3,114.55,299.67,117.77ZM312.93,126l.26.07c.8.26,1.6.54,2.4.81-4.79,3.3-9.85,6.76-14.7,10.08l-2.13-.7Q305.72,131.35,312.93,126Zm10.68,12.72c2.4-1.59,5.07-3.46,8-5.54,1,.43,2,.88,3,1.33-4.47,3.12-9.18,6.4-13.78,9.59-1.09-.43-2.2-.86-3.32-1.28C319.39,141.57,321.43,140.21,323.61,138.76Zm16.11,9.18c2.93-2.13,5.9-4.32,8.87-6.53,33.91,17.55,69.92,42.46,100.27,57.94,41.27,21,76.41,37.36,113.36,47.52s85.37,21.25,130.51,8.46,69.22-41.85,77.58-62.88S776.22,144,761.56,121s-31.63-37.48-45.35-48.9S674.3,46.48,664,41.71s-45.11-19.12-88.41-23-78.8.12-119.22,10.28S370.21,66.61,340,89l-4.59,3.38c-1.45-.44-2.88-.87-4.3-1.28l1.09-.78h0c25.05-18.07,52-36.7,81.38-49.73C456.37,21.7,504.4,12.76,552.44,14.79c38.09,1.6,76.07,9.77,109.83,23.63a261.29,261.29,0,0,1,49.36,26.51,206.41,206.41,0,0,1,40.74,36.72c12.91,15.38,21.8,32.39,25.72,49.22,4.48,19.21,2.46,37.37-6,54-11.55,22.7-33.59,42.18-60.47,53.46-19.7,8.27-42.4,12.49-67.47,12.56h-.66c-20.63,0-43.52-2.81-68-8.35-39.25-8.89-79.4-23.69-122.73-45.25a700,700,0,0,1-61.46-34.56l-5-3.18c-13.62-8.63-27.71-17.55-42.6-24.85-2.58-1.28-5.3-2.59-8.07-3.89l-.05,0Zm-8.33-52.63c-4.53,3.27-9.35,6.72-14.29,10.23-1.48-.43-2.93-.85-4.37-1.25l14.42-10.35C328.58,94.4,330,94.85,331.39,95.31Zm-42.5,5.84c1,.23,2,.46,3,.71-5,3.48-10,7.07-15,10.6l-2.67-.53C279.35,108.2,284.3,104.55,288.89,101.15Zm-16.16,14.3c-5,3.54-9.8,7-14.24,10.17l-2.49-.44c4.72-3.39,9.52-6.87,14.24-10.31Zm-34.64,22.4-.66.45c4.94-3.42,10.27-7.18,15.72-11.08.82.15,1.62.32,2.44.48l-14.77,10.62Zm21.61,4.5L274.2,132c1,.29,2.21.63,3.5,1-5.89,4-11,7.54-14.84,10.15Zm21.57,5.87c4.6-3,9.31-6.17,14.11-9.53l2,.71-13.92,9.5Zm18.92,6.54c3.22-2.29,7.57-5.32,13.33-9.22,1.09.44,2.19.9,3.29,1.36-4.83,3.34-9.42,6.49-13.37,9.16C302.36,155.62,301.27,155.18,300.19,154.76ZM764.29,240c-18.24,19.51-44.26,34.74-71.38,41.78-39.37,10.24-85,8.53-139.51-5.21-37.88-9.55-77.15-24.6-116.72-44.73-18.79-9.56-36.7-20.93-54-31.92-13.84-8.78-28.15-17.86-42.82-26-6.49-3.58-13.14-7-19.79-10.11l-1.86-1-.32-.17,13.61-9.2.08,0h0l.82.42c1.61.79,3.21,1.59,4.8,2.42l.69.37c16.61,8.67,32.45,18.76,47.82,28.58,11.16,7.12,22.7,14.48,34.44,21.24,43.07,24.79,85.87,43.57,127.22,55.82,52,15.4,95.94,19.44,134.35,12.33,28.41-5.48,55.81-19.35,75.17-38.05a101.56,101.56,0,0,0,23.44-33.36,82.61,82.61,0,0,0,6.16-40.88,98.51,98.51,0,0,0-2.06-12.35c-2-7-4.4-13.56-6.6-19.42A118.22,118.22,0,0,0,771.13,118c-1.68-2.76-3.5-5.51-5.44-8.22-14.6-19.27-36.09-36.49-46.3-44.1a306.87,306.87,0,0,0-64.77-33.81,353.37,353.37,0,0,0-76.23-19.54c-34.75-3.39-61.92-3.81-85.2-1.92A319.53,319.53,0,0,0,437,20.62c-2.77.8-5.53,1.62-8.28,2.49l-.84.26L426,24l-2.15.72c-38,13.06-77.87,40.42-103.35,57.4-2,1.38-4,2.78-6.1,4.24l-.13,0-.29.19c-1.42-.36-2.8-.69-4.12-1l5.67-4.27c24.76-17.9,53.3-37.31,84.27-50.61C471.16,0,559.43-2,642,25.32c37.31,12.33,71.9,30.62,97.42,51.5,15.26,12.49,27.45,26,36.24,40.09,9.78,15.71,15.43,32.35,16.79,49.48C794.5,192.66,784.76,218.13,764.29,240Z"/></svg>