<?xml version="1.0" encoding="UTF-8"?>
<svg width="90px" height="90px" viewBox="0 0 90 90" version="1.1" xmlns="http://www.w3.org/2000/svg" xmlns:xlink="http://www.w3.org/1999/xlink">
    <title>Group</title>
    <g id="Page-1" stroke="none" stroke-width="1" fill="none" fill-rule="evenodd">
        <g id="cwef_Desktop" transform="translate(-1153.000000, -1537.000000)">
            <g id="Group" transform="translate(1153.000000, 1537.000000)">
                <circle id="Oval" fill="#fff" cx="45" cy="45" r="45"></circle>
                <g id="user-(4)" transform="translate(23.000000, 20.000000)" fill="#d8d8d8" fill-rule="nonzero">
                    <path d="M44.9715234,43.835625 L43.8465234,39.335625 C43.3127637,37.1525977 41.6945215,35.3969824 39.5621191,34.6875293 L31.3120898,31.93875 C29.3001855,31.100625 28.3796191,27.860625 28.1808105,26.6305957 C29.7137988,25.3558301 30.7001953,23.5421191 30.9370605,21.5624707 C30.9032227,21.2243555 30.9830273,20.8845703 31.1639062,20.5968164 C31.4562305,20.5236035 31.6955566,20.314248 31.807002,20.0343164 C32.3468262,18.727207 32.6856445,17.345918 32.8120312,15.9374707 C32.8122949,15.860918 32.8028906,15.7847168 32.7839062,15.710625 C32.6496094,15.1633301 32.3278418,14.6803711 31.874502,14.3455957 L31.874502,9.37494141 C31.874502,6.35431641 30.952002,5.1149707 29.9807227,4.39681641 C29.7952734,2.941875 28.2371484,0 22.4996484,0 C17.4092871,0.204960937 13.3295801,4.28466797 13.1246191,9.3750293 L13.1246191,14.3456836 C12.6712793,14.680459 12.3495117,15.163418 12.2152148,15.7107129 C12.1962305,15.7848047 12.1868262,15.8610938 12.1870898,15.9375586 C12.3133008,17.346709 12.6521191,18.7286133 13.1921191,20.0363379 C13.2733301,20.3013281 13.4862891,20.5051465 13.7546191,20.5744922 C13.8596484,20.6269629 14.0565234,20.8988965 14.0565234,21.5626465 C14.2947949,23.5479199 15.2869043,25.3657617 16.8278027,26.6401758 C16.6309277,27.8682715 15.7158984,31.1064258 13.760332,31.9238965 L5.43717773,34.6876172 C3.30644531,35.3969824 1.68925781,37.1508398 1.15470703,39.3320215 L0.0297070312,43.8320215 C-0.0976464844,44.333877 0.205927734,44.8439941 0.707783203,44.9713477 C0.782753906,44.9904199 0.859833984,45.0001758 0.937177734,45.0001758 L44.062207,45.0001758 C44.5799707,45.0001758 44.9994727,44.5801465 44.9994727,44.0623828 C44.9994727,43.9858301 44.9899805,43.9097168 44.9715234,43.835625 Z" id="Path"></path>
                </g>
            </g>
        </g>
    </g>
</svg>